<svg width="580" height="145" viewBox="0 0 580 145" fill="none" xmlns="http://www.w3.org/2000/svg">
<path d="M12.8 97V45.544C12.8 40.8507 12.4587 37.5227 11.776 35.56C10.5813 32.3173 8.14933 30.44 4.48 29.928V28.776H54.016C60.7573 28.776 65.5787 29.8427 68.48 31.976C71.1253 34.024 72.448 37.3093 72.448 41.832C72.448 49.3413 66.304 56.3813 54.016 62.952C62.8053 72.7653 70.272 85.48 76.416 101.096C77.696 104.424 78.72 106.643 79.488 107.752C81.024 109.971 82.9867 111.336 85.376 111.848V113H58.368V111.848C61.5253 111.251 63.104 109.587 63.104 106.856C63.104 104.637 62.2933 101.523 60.672 97.512C59.2213 94.0133 57.728 91.1547 56.192 88.936C53.2053 84.4987 48.384 77.5867 41.728 68.2L26.88 73.32V96.232C26.88 101.267 27.264 104.723 28.032 106.6C29.1413 109.587 31.5307 111.336 35.2 111.848V113H4.48V111.848C8.14933 111.251 10.5813 109.501 11.776 106.6C12.4587 104.723 12.8 101.523 12.8 97ZM26.88 45.416V67.304C34.1333 65.256 40.5333 62.6533 46.08 59.496C54.3573 54.888 58.496 49.9813 58.496 44.776C58.496 40.5947 56.8747 37.736 53.632 36.2C51.4133 35.176 47.9147 34.664 43.136 34.664C34.8587 34.664 29.952 35.6027 28.416 37.48C27.392 38.76 26.88 41.4053 26.88 45.416ZM153.689 113H136.153C133.337 109.416 131.886 105.576 131.801 101.48C129.412 105.747 125.785 109.032 120.921 111.336C116.569 113.299 111.705 114.28 106.329 114.28C100.356 114.28 95.4917 112.957 91.737 110.312C87.9823 107.581 86.105 103.912 86.105 99.304C86.105 90.6853 91.6943 83.9013 102.873 78.952C106.884 77.16 116.185 74.5147 130.777 71.016V68.584C130.777 63.8907 129.796 60.6053 127.833 58.728C125.956 56.7653 122.628 55.784 117.849 55.784C104.878 55.784 95.7903 61.5867 90.585 73.192L92.633 52.2C93.9983 53.3093 95.2783 53.864 96.473 53.864C97.497 53.864 98.9477 53.5227 100.825 52.84C108.846 50.024 116.228 48.616 122.969 48.616C131.076 48.616 136.708 50.1947 139.865 53.352C143.022 56.5093 144.601 62.0987 144.601 70.12V94.184C144.601 99.304 144.985 102.973 145.753 105.192C147.033 108.861 149.678 111.08 153.689 111.848V113ZM130.777 81.512V76.264C110.724 80.616 100.697 87.7413 100.697 97.64C100.697 100.541 101.678 102.845 103.641 104.552C105.689 106.259 108.164 107.112 111.065 107.112C118.404 107.112 123.737 104.168 127.065 98.28C129.54 93.928 130.777 88.3387 130.777 81.512ZM185.34 97L197.372 65C199.42 59.5387 200.444 56.2107 200.444 55.016C200.444 52.712 198.951 51.3893 195.964 51.048V49.896H215.548V51.048C212.903 51.3893 210.769 52.7973 209.148 55.272C208.465 56.3813 207.399 58.8133 205.948 62.568L184.188 119.528C181.628 126.355 179.025 131.219 176.38 134.12C172.54 138.301 167.548 140.392 161.404 140.392C156.796 140.392 152.615 138.856 148.86 135.784L156.796 118.504L157.82 119.144C157.479 120.253 157.308 121.405 157.308 122.6C157.308 124.989 157.948 127.037 159.228 128.744C160.593 130.536 162.428 131.432 164.732 131.432C168.487 131.432 171.516 129.64 173.82 126.056C175.783 122.899 176.764 119.357 176.764 115.432C176.764 111.421 174.972 104.936 171.388 95.976L157.692 61.8C156.327 58.3013 155.217 55.9547 154.364 54.76C152.743 52.2 150.908 50.9627 148.86 51.048V49.896H174.588V51.048C171.772 51.3893 170.364 52.712 170.364 55.016C170.364 56.2107 170.961 58.4293 172.156 61.672L185.34 97ZM346.276 113H313.252C305.145 113 298.575 112.403 293.54 111.208C286.969 109.587 281.081 106.643 275.876 102.376C265.039 93.416 259.62 81.5547 259.62 66.792C259.62 54.1627 263.716 44.264 271.908 37.096C279.588 30.44 289.828 27.112 302.628 27.112C305.444 27.112 309.199 27.4533 313.892 28.136C318.671 28.7333 321.359 29.032 321.956 29.032C324.431 29.032 326.393 28.0507 327.844 26.088L332.324 49.768L331.044 50.024C328.569 44.7333 324.9 40.7227 320.036 37.992C315.172 35.176 309.753 33.768 303.78 33.768C294.649 33.768 287.481 36.6693 282.276 42.472C277.412 48.0187 274.98 55.4427 274.98 64.744C274.98 76.008 278.265 85.736 284.836 93.928C291.833 102.717 300.836 107.112 311.844 107.112C317.903 107.112 321.828 105.875 323.62 103.4C324.985 101.523 325.668 97.8107 325.668 92.264V72.04C325.668 67.432 325.327 64.104 324.644 62.056C323.449 58.8987 321.103 57.0213 317.604 56.424V55.272H346.276V56.424C343.375 57.0213 341.497 58.1733 340.644 59.88C340.047 61.0747 339.748 63.336 339.748 66.664V100.712C339.748 104.296 340.047 106.728 340.644 108.008C341.497 109.971 343.375 111.293 346.276 111.976V113ZM390.662 114.28C380.678 114.28 372.529 111.379 366.214 105.576C359.643 99.6027 356.358 91.7093 356.358 81.896C356.358 71.8267 359.814 63.72 366.726 57.576C373.297 51.6027 381.702 48.616 391.942 48.616C402.011 48.616 410.203 51.3893 416.518 56.936C423.089 62.824 426.374 70.7173 426.374 80.616C426.374 90.856 422.918 99.0907 416.006 105.32C409.435 111.293 400.987 114.28 390.662 114.28ZM391.174 54.76C384.347 54.76 379.185 57.2347 375.686 62.184C372.529 66.536 370.95 72.2533 370.95 79.336C370.95 86.8453 372.529 93.2453 375.686 98.536C379.441 104.936 384.817 108.136 391.814 108.136C397.873 108.136 402.779 105.491 406.534 100.2C410.033 95.336 411.782 89.4053 411.782 82.408C411.782 75.0693 410.246 68.8827 407.174 63.848C403.419 57.7893 398.086 54.76 391.174 54.76ZM443.029 97.256V67.176C443.029 62.7387 442.73 59.5813 442.133 57.704C441.024 54.632 438.89 52.968 435.733 52.712V51.56L452.885 49.896C454.848 53.3947 455.914 57.8747 456.085 63.336C465.557 53.5227 474.218 48.616 482.069 48.616C488.384 48.616 492.821 50.6213 495.381 54.632C497.429 57.96 498.453 63.08 498.453 69.992V97.128C498.453 101.736 498.794 104.979 499.477 106.856C500.586 109.928 502.805 111.592 506.133 111.848V113H477.717V111.848C481.045 111.592 483.264 109.885 484.373 106.728C485.056 104.851 485.397 101.651 485.397 97.128V74.984C485.397 69.352 484.8 65.256 483.605 62.696C482.069 59.4533 479.338 57.832 475.413 57.832C472.682 57.832 469.781 58.7707 466.709 60.648C463.978 62.44 461.717 64.616 459.925 67.176C458.133 69.736 456.981 72.5093 456.469 75.496C456.213 77.2027 456.085 80.232 456.085 84.584V97.128C456.085 101.651 456.426 104.851 457.109 106.728C458.133 109.8 460.309 111.549 463.637 111.976V113H435.349V111.848C438.677 111.507 440.896 109.8 442.005 106.728C442.688 104.851 443.029 101.693 443.029 97.256ZM570.404 65.64V99.304C570.404 101.864 570.575 103.613 570.916 104.552C571.343 105.917 572.367 107.368 573.988 108.904C577.743 112.488 579.62 116.115 579.62 119.784C579.62 126.269 576.079 131.517 568.996 135.528C562.425 139.197 554.489 141.032 545.188 141.032C530.852 141.032 519.716 137.021 511.78 129L526.116 114.536L526.756 115.304C525.561 117.267 524.964 119.144 524.964 120.936C524.964 125.203 526.841 128.659 530.596 131.304C534.436 133.949 539.343 135.272 545.316 135.272C551.375 135.272 556.324 133.992 560.164 131.432C564.089 128.957 566.052 125.757 566.052 121.832C566.052 118.077 564.644 115.56 561.828 114.28C559.951 113.427 556.879 113 552.612 113C540.409 113 531.321 110.909 525.348 106.728C516.473 100.499 512.036 91.368 512.036 79.336C512.036 69.6933 514.809 62.3547 520.356 57.32C525.647 52.3707 533.113 49.896 542.756 49.896H578.084V51.048C574.159 51.304 571.769 52.968 570.916 56.04C570.575 57.064 570.404 60.264 570.404 65.64ZM557.348 106.472V65.384C557.348 61.032 556.751 58.2587 555.556 57.064C553.764 55.6987 550.948 55.016 547.108 55.016C540.281 55.016 534.948 57.448 531.108 62.312C527.609 66.8347 525.86 72.5947 525.86 79.592C525.86 87.784 528.42 94.4827 533.54 99.688C538.319 104.467 543.908 106.856 550.308 106.856C551.161 106.856 553.508 106.728 557.348 106.472Z" fill="#F5EDD8"/>
<line x1="-1.74846e-07" y1="143" x2="580" y2="143" stroke="url(#paint0_linear_11_9)" stroke-width="4"/>
<defs>
<linearGradient id="paint0_linear_11_9" x1="0" y1="145" x2="580.002" y2="145.483" gradientUnits="userSpaceOnUse">
<stop stop-color="#F5EDD8" stop-opacity="0"/>
<stop offset="0.515625" stop-color="#F5EDD8"/>
<stop offset="1" stop-color="#F5EDD8" stop-opacity="0"/>
</linearGradient>
</defs>
</svg>
